<svg xmlns="http://www.w3.org/2000/svg" xmlns:xlink="http://www.w3.org/1999/xlink" width="140" zoomAndPan="magnify" viewBox="0 0 104.88 30.000001" height="40" preserveAspectRatio="xMidYMid meet" version="1.0"><defs><g/><clipPath id="ec09ff5a10"><path d="M 13.453125 1.007812 L 31.601562 1.007812 L 31.601562 27.863281 L 13.453125 27.863281 Z M 13.453125 1.007812 " clip-rule="nonzero"/></clipPath></defs><g clip-path="url(#ec09ff5a10)"><path fill="#948bfc" d="M 25.21875 1.015625 L 28.6875 1.015625 C 29.085938 1.015625 29.40625 1.335938 29.40625 1.730469 C 29.40625 1.734375 29.40625 1.734375 29.410156 1.738281 L 29.570312 4.085938 C 29.574219 4.136719 29.613281 4.179688 29.660156 4.191406 C 30.410156 4.386719 31.125 4.660156 31.796875 5.003906 C 31.800781 5.003906 31.800781 5.007812 31.800781 5.007812 C 31.863281 5.039062 31.882812 5.125 31.839844 5.179688 L 30.195312 7.339844 C 30.164062 7.382812 30.105469 7.398438 30.054688 7.375 C 29.773438 7.253906 29.484375 7.148438 29.1875 7.058594 C 28.808594 6.945312 28.417969 6.859375 28.015625 6.804688 C 27.777344 6.773438 27.53125 6.75 27.285156 6.738281 C 27.175781 6.734375 27.066406 6.734375 26.953125 6.734375 C 26.742188 6.734375 26.527344 6.742188 26.320312 6.757812 C 24.042969 6.941406 22.039062 8.105469 20.738281 9.832031 C 19.757812 11.132812 19.171875 12.753906 19.171875 14.515625 C 19.171875 18.8125 22.65625 22.296875 26.953125 22.296875 C 28.054688 22.296875 29.105469 22.066406 30.054688 21.652344 C 30.105469 21.628906 30.164062 21.644531 30.195312 21.6875 L 30.351562 21.890625 L 31.835938 23.847656 C 31.882812 23.902344 31.863281 23.988281 31.796875 24.023438 C 31.789062 24.027344 31.78125 24.03125 31.773438 24.035156 C 31.765625 24.039062 31.753906 24.042969 31.742188 24.050781 C 31.40625 24.21875 31.054688 24.375 30.699219 24.507812 C 30.359375 24.632812 30.015625 24.742188 29.660156 24.835938 C 29.613281 24.847656 29.574219 24.890625 29.570312 24.941406 L 29.410156 27.289062 C 29.40625 27.292969 29.40625 27.292969 29.40625 27.296875 C 29.40625 27.691406 29.085938 28.011719 28.6875 28.011719 L 25.21875 28.011719 C 24.824219 28.011719 24.5 27.691406 24.5 27.296875 C 24.5 27.292969 24.5 27.292969 24.5 27.289062 L 24.335938 24.941406 C 24.332031 24.890625 24.296875 24.847656 24.246094 24.835938 C 23.296875 24.585938 22.398438 24.210938 21.570312 23.726562 C 21.527344 23.699219 21.46875 23.707031 21.433594 23.738281 L 19.65625 25.285156 C 19.652344 25.285156 19.652344 25.285156 19.652344 25.289062 C 19.371094 25.566406 18.914062 25.566406 18.636719 25.285156 L 16.183594 22.832031 C 15.902344 22.550781 15.902344 22.097656 16.179688 21.816406 C 16.183594 21.816406 16.183594 21.8125 16.183594 21.8125 L 17.730469 20.035156 C 17.761719 19.996094 17.765625 19.941406 17.742188 19.898438 C 17.257812 19.070312 16.878906 18.171875 16.632812 17.21875 C 16.617188 17.171875 16.574219 17.136719 16.527344 17.132812 L 14.179688 16.96875 C 14.175781 16.96875 14.171875 16.96875 14.171875 16.96875 C 13.777344 16.964844 13.457031 16.644531 13.457031 16.25 L 13.457031 12.777344 C 13.457031 12.382812 13.777344 12.0625 14.171875 12.058594 C 14.171875 12.058594 14.175781 12.058594 14.179688 12.058594 L 16.527344 11.894531 C 16.574219 11.890625 16.617188 11.855469 16.632812 11.808594 C 16.878906 10.855469 17.257812 9.957031 17.742188 9.128906 C 17.765625 9.085938 17.761719 9.03125 17.730469 8.992188 L 17.46875 8.691406 L 16.183594 7.214844 C 16.183594 7.214844 16.183594 7.210938 16.179688 7.210938 C 15.902344 6.929688 15.902344 6.476562 16.183594 6.195312 L 18.636719 3.742188 C 18.914062 3.460938 19.371094 3.460938 19.652344 3.738281 C 19.652344 3.742188 19.652344 3.742188 19.65625 3.746094 L 21.433594 5.289062 C 21.46875 5.320312 21.527344 5.328125 21.570312 5.300781 C 22.285156 4.882812 23.054688 4.542969 23.863281 4.300781 C 23.988281 4.261719 24.117188 4.226562 24.246094 4.191406 C 24.296875 4.179688 24.332031 4.136719 24.335938 4.085938 L 24.359375 3.738281 L 24.378906 3.445312 L 24.441406 2.578125 L 24.5 1.738281 C 24.5 1.734375 24.5 1.734375 24.5 1.730469 C 24.5 1.335938 24.824219 1.015625 25.21875 1.015625 " fill-opacity="1" fill-rule="nonzero"/></g><g fill="#fcfbfc" fill-opacity="1"><g transform="translate(34.459104, 12.52886)"><g><path d="M 1.578125 -5.296875 L 1.578125 0 L 0.515625 0 L 0.515625 -5.296875 Z M 1.578125 -5.296875 "/></g></g></g><g fill="#fcfbfc" fill-opacity="1"><g transform="translate(36.567159, 12.52886)"><g><path d="M 4.125 -5.296875 L 4.125 -4.4375 L 2.71875 -4.4375 L 2.71875 0 L 1.65625 0 L 1.65625 -4.4375 L 0.25 -4.4375 L 0.25 -5.296875 Z M 4.125 -5.296875 "/></g></g></g><g fill="#fcfbfc" fill-opacity="1"><g transform="translate(34.459104, 21.148341)"><g><path d="M 0.265625 -2.65625 C 0.265625 -3.175781 0.378906 -3.640625 0.609375 -4.046875 C 0.847656 -4.460938 1.171875 -4.785156 1.578125 -5.015625 C 1.984375 -5.242188 2.441406 -5.359375 2.953125 -5.359375 C 3.535156 -5.359375 4.050781 -5.207031 4.5 -4.90625 C 4.945312 -4.601562 5.257812 -4.179688 5.4375 -3.640625 L 4.21875 -3.640625 C 4.09375 -3.898438 3.921875 -4.09375 3.703125 -4.21875 C 3.484375 -4.34375 3.226562 -4.40625 2.9375 -4.40625 C 2.632812 -4.40625 2.363281 -4.332031 2.125 -4.1875 C 1.882812 -4.039062 1.695312 -3.835938 1.5625 -3.578125 C 1.425781 -3.316406 1.359375 -3.007812 1.359375 -2.65625 C 1.359375 -2.300781 1.425781 -1.988281 1.5625 -1.71875 C 1.695312 -1.457031 1.882812 -1.253906 2.125 -1.109375 C 2.363281 -0.972656 2.632812 -0.90625 2.9375 -0.90625 C 3.226562 -0.90625 3.484375 -0.96875 3.703125 -1.09375 C 3.921875 -1.21875 4.09375 -1.410156 4.21875 -1.671875 L 5.4375 -1.671875 C 5.257812 -1.128906 4.945312 -0.707031 4.5 -0.40625 C 4.0625 -0.101562 3.546875 0.046875 2.953125 0.046875 C 2.441406 0.046875 1.984375 -0.0664062 1.578125 -0.296875 C 1.171875 -0.523438 0.847656 -0.84375 0.609375 -1.25 C 0.378906 -1.664062 0.265625 -2.132812 0.265625 -2.65625 Z M 0.265625 -2.65625 "/></g></g></g><g fill="#fcfbfc" fill-opacity="1"><g transform="translate(40.282795, 21.148341)"><g><path d="M 2.390625 0.0625 C 1.984375 0.0625 1.617188 -0.0234375 1.296875 -0.203125 C 0.972656 -0.378906 0.71875 -0.628906 0.53125 -0.953125 C 0.34375 -1.285156 0.25 -1.664062 0.25 -2.09375 C 0.25 -2.53125 0.34375 -2.910156 0.53125 -3.234375 C 0.726562 -3.566406 0.988281 -3.820312 1.3125 -4 C 1.644531 -4.175781 2.015625 -4.265625 2.421875 -4.265625 C 2.828125 -4.265625 3.191406 -4.175781 3.515625 -4 C 3.847656 -3.820312 4.109375 -3.566406 4.296875 -3.234375 C 4.484375 -2.910156 4.578125 -2.53125 4.578125 -2.09375 C 4.578125 -1.664062 4.476562 -1.285156 4.28125 -0.953125 C 4.09375 -0.628906 3.832031 -0.378906 3.5 -0.203125 C 3.164062 -0.0234375 2.796875 0.0625 2.390625 0.0625 Z M 2.390625 -0.859375 C 2.578125 -0.859375 2.753906 -0.90625 2.921875 -1 C 3.097656 -1.09375 3.234375 -1.234375 3.328125 -1.421875 C 3.429688 -1.609375 3.484375 -1.832031 3.484375 -2.09375 C 3.484375 -2.5 3.378906 -2.804688 3.171875 -3.015625 C 2.960938 -3.234375 2.707031 -3.34375 2.40625 -3.34375 C 2.101562 -3.34375 1.847656 -3.234375 1.640625 -3.015625 C 1.429688 -2.804688 1.328125 -2.5 1.328125 -2.09375 C 1.328125 -1.695312 1.425781 -1.390625 1.625 -1.171875 C 1.832031 -0.960938 2.085938 -0.859375 2.390625 -0.859375 Z M 2.390625 -0.859375 "/></g></g></g><g fill="#fcfbfc" fill-opacity="1"><g transform="translate(45.120705, 21.148341)"><g><path d="M 5.734375 -4.265625 C 6.253906 -4.265625 6.671875 -4.101562 6.984375 -3.78125 C 7.296875 -3.46875 7.453125 -3.03125 7.453125 -2.46875 L 7.453125 0 L 6.390625 0 L 6.390625 -2.3125 C 6.390625 -2.644531 6.304688 -2.894531 6.140625 -3.0625 C 5.972656 -3.238281 5.75 -3.328125 5.46875 -3.328125 C 5.175781 -3.328125 4.945312 -3.238281 4.78125 -3.0625 C 4.613281 -2.894531 4.53125 -2.644531 4.53125 -2.3125 L 4.53125 0 L 3.46875 0 L 3.46875 -2.3125 C 3.46875 -2.644531 3.382812 -2.894531 3.21875 -3.0625 C 3.050781 -3.238281 2.820312 -3.328125 2.53125 -3.328125 C 2.238281 -3.328125 2.003906 -3.238281 1.828125 -3.0625 C 1.660156 -2.894531 1.578125 -2.644531 1.578125 -2.3125 L 1.578125 0 L 0.515625 0 L 0.515625 -4.203125 L 1.578125 -4.203125 L 1.578125 -3.6875 C 1.710938 -3.863281 1.890625 -4.003906 2.109375 -4.109375 C 2.328125 -4.210938 2.5625 -4.265625 2.8125 -4.265625 C 3.144531 -4.265625 3.4375 -4.191406 3.6875 -4.046875 C 3.945312 -3.910156 4.148438 -3.710938 4.296875 -3.453125 C 4.429688 -3.691406 4.628906 -3.882812 4.890625 -4.03125 C 5.148438 -4.1875 5.429688 -4.265625 5.734375 -4.265625 Z M 5.734375 -4.265625 "/></g></g></g><g fill="#fcfbfc" fill-opacity="1"><g transform="translate(53.067617, 21.148341)"><g><path d="M 1.578125 -3.59375 C 1.710938 -3.78125 1.898438 -3.9375 2.140625 -4.0625 C 2.390625 -4.195312 2.664062 -4.265625 2.96875 -4.265625 C 3.332031 -4.265625 3.65625 -4.175781 3.9375 -4 C 4.226562 -3.820312 4.457031 -3.570312 4.625 -3.25 C 4.800781 -2.925781 4.890625 -2.546875 4.890625 -2.109375 C 4.890625 -1.679688 4.800781 -1.300781 4.625 -0.96875 C 4.457031 -0.644531 4.226562 -0.390625 3.9375 -0.203125 C 3.65625 -0.0234375 3.332031 0.0625 2.96875 0.0625 C 2.664062 0.0625 2.394531 0 2.15625 -0.125 C 1.914062 -0.25 1.722656 -0.40625 1.578125 -0.59375 L 1.578125 2 L 0.515625 2 L 0.515625 -4.203125 L 1.578125 -4.203125 Z M 3.796875 -2.109375 C 3.796875 -2.367188 3.742188 -2.585938 3.640625 -2.765625 C 3.546875 -2.953125 3.410156 -3.09375 3.234375 -3.1875 C 3.066406 -3.28125 2.882812 -3.328125 2.6875 -3.328125 C 2.5 -3.328125 2.316406 -3.273438 2.140625 -3.171875 C 1.972656 -3.078125 1.835938 -2.9375 1.734375 -2.75 C 1.628906 -2.570312 1.578125 -2.351562 1.578125 -2.09375 C 1.578125 -1.84375 1.628906 -1.625 1.734375 -1.4375 C 1.835938 -1.25 1.972656 -1.101562 2.140625 -1 C 2.316406 -0.90625 2.5 -0.859375 2.6875 -0.859375 C 2.882812 -0.859375 3.066406 -0.910156 3.234375 -1.015625 C 3.410156 -1.117188 3.546875 -1.265625 3.640625 -1.453125 C 3.742188 -1.640625 3.796875 -1.859375 3.796875 -2.109375 Z M 3.796875 -2.109375 "/></g></g></g><g fill="#fcfbfc" fill-opacity="1"><g transform="translate(58.208845, 21.148341)"><g><path d="M 0.25 -2.109375 C 0.25 -2.535156 0.332031 -2.910156 0.5 -3.234375 C 0.675781 -3.566406 0.90625 -3.820312 1.1875 -4 C 1.476562 -4.175781 1.804688 -4.265625 2.171875 -4.265625 C 2.484375 -4.265625 2.753906 -4.203125 2.984375 -4.078125 C 3.222656 -3.953125 3.410156 -3.789062 3.546875 -3.59375 L 3.546875 -4.203125 L 4.625 -4.203125 L 4.625 0 L 3.546875 0 L 3.546875 -0.609375 C 3.410156 -0.410156 3.222656 -0.25 2.984375 -0.125 C 2.742188 0 2.46875 0.0625 2.15625 0.0625 C 1.800781 0.0625 1.476562 -0.0234375 1.1875 -0.203125 C 0.90625 -0.390625 0.675781 -0.644531 0.5 -0.96875 C 0.332031 -1.300781 0.25 -1.679688 0.25 -2.109375 Z M 3.546875 -2.09375 C 3.546875 -2.351562 3.492188 -2.570312 3.390625 -2.75 C 3.296875 -2.9375 3.160156 -3.078125 2.984375 -3.171875 C 2.816406 -3.273438 2.632812 -3.328125 2.4375 -3.328125 C 2.238281 -3.328125 2.054688 -3.28125 1.890625 -3.1875 C 1.722656 -3.09375 1.585938 -2.953125 1.484375 -2.765625 C 1.378906 -2.585938 1.328125 -2.367188 1.328125 -2.109375 C 1.328125 -1.859375 1.378906 -1.640625 1.484375 -1.453125 C 1.585938 -1.265625 1.722656 -1.117188 1.890625 -1.015625 C 2.066406 -0.910156 2.25 -0.859375 2.4375 -0.859375 C 2.632812 -0.859375 2.816406 -0.90625 2.984375 -1 C 3.160156 -1.101562 3.296875 -1.25 3.390625 -1.4375 C 3.492188 -1.625 3.546875 -1.84375 3.546875 -2.09375 Z M 3.546875 -2.09375 "/></g></g></g><g fill="#fcfbfc" fill-opacity="1"><g transform="translate(63.350073, 21.148341)"><g><path d="M 2.84375 -4.265625 C 3.34375 -4.265625 3.75 -4.101562 4.0625 -3.78125 C 4.375 -3.46875 4.53125 -3.03125 4.53125 -2.46875 L 4.53125 0 L 3.46875 0 L 3.46875 -2.3125 C 3.46875 -2.644531 3.382812 -2.898438 3.21875 -3.078125 C 3.050781 -3.265625 2.820312 -3.359375 2.53125 -3.359375 C 2.238281 -3.359375 2.003906 -3.265625 1.828125 -3.078125 C 1.660156 -2.898438 1.578125 -2.644531 1.578125 -2.3125 L 1.578125 0 L 0.515625 0 L 0.515625 -4.203125 L 1.578125 -4.203125 L 1.578125 -3.671875 C 1.722656 -3.859375 1.90625 -4.003906 2.125 -4.109375 C 2.34375 -4.210938 2.582031 -4.265625 2.84375 -4.265625 Z M 2.84375 -4.265625 "/></g></g></g><g fill="#fcfbfc" fill-opacity="1"><g transform="translate(68.36239, 21.148341)"><g><path d="M 4.546875 -4.203125 L 1.9375 1.984375 L 0.8125 1.984375 L 1.71875 -0.109375 L 0.03125 -4.203125 L 1.234375 -4.203125 L 2.3125 -1.265625 L 3.40625 -4.203125 Z M 4.546875 -4.203125 "/></g></g></g></svg>
