<svg xmlns="http://www.w3.org/2000/svg" xmlns:xlink="http://www.w3.org/1999/xlink" width="500" zoomAndPan="magnify" viewBox="0 0 375 374.999991" height="500" preserveAspectRatio="xMidYMid meet" version="1.0"><defs><g/><clipPath id="b13a6594dd"><path d="M 10.492188 6 L 87 6 L 87 52 L 10.492188 52 Z M 10.492188 6 " clip-rule="nonzero"/></clipPath><clipPath id="205fe6c649"><path d="M 329 293 L 374 293 L 374 369.839844 L 329 369.839844 Z M 329 293 " clip-rule="nonzero"/></clipPath><clipPath id="6311506a7e"><path d="M 46 5.339844 L 374.992188 5.339844 L 374.992188 334 L 46 334 Z M 46 5.339844 " clip-rule="nonzero"/></clipPath></defs><g clip-path="url(#b13a6594dd)"><path fill="#9b1f1f" d="M 10.507812 51.132812 L 86.371094 51.132812 L 41.792969 6.554688 Z M 10.507812 51.132812 " fill-opacity="1" fill-rule="nonzero"/></g><g clip-path="url(#205fe6c649)"><path fill="#9b1f1f" d="M 373.761719 338.539062 L 329.074219 293.851562 L 329.074219 369.882812 Z M 373.761719 338.539062 " fill-opacity="1" fill-rule="nonzero"/></g><g clip-path="url(#6311506a7e)"><path fill="#e50707" d="M 374.851562 308.613281 L 374.851562 185.730469 C 374.851562 178.664062 372.105469 172.027344 367.097656 167.019531 L 213.199219 13.109375 C 208.195312 8.101562 201.554688 5.355469 194.488281 5.355469 L 46.65625 5.355469 L 374.851562 333.5625 Z M 374.851562 308.613281 " fill-opacity="1" fill-rule="nonzero"/></g><g fill="#ffffff" fill-opacity="1"><g transform="translate(195.982574, 106.752312)"><g><path d="M 23.84375 11.484375 C 21.570312 13.597656 19.015625 14.453125 16.171875 14.046875 C 13.335938 13.640625 10.5625 11.976562 7.84375 9.0625 C 5.320312 6.375 3.601562 3.53125 2.6875 0.53125 L 7.640625 -4.109375 C 8.460938 -1.710938 9.269531 0.21875 10.0625 1.6875 C 10.863281 3.15625 11.71875 4.375 12.625 5.34375 C 13.71875 6.519531 14.78125 7.210938 15.8125 7.421875 C 16.84375 7.628906 17.804688 7.316406 18.703125 6.484375 C 19.179688 6.023438 19.484375 5.476562 19.609375 4.84375 C 19.734375 4.207031 19.726562 3.457031 19.59375 2.59375 C 19.457031 1.726562 19.003906 0.109375 18.234375 -2.265625 C 17.523438 -4.472656 17.140625 -6.273438 17.078125 -7.671875 C 17.023438 -9.066406 17.222656 -10.40625 17.671875 -11.6875 C 18.128906 -12.976562 18.945312 -14.175781 20.125 -15.28125 C 22.351562 -17.351562 24.804688 -18.226562 27.484375 -17.90625 C 30.171875 -17.59375 32.765625 -16.109375 35.265625 -13.453125 C 36.484375 -12.140625 37.492188 -10.75 38.296875 -9.28125 C 39.109375 -7.8125 39.835938 -6.160156 40.484375 -4.328125 L 34.71875 -2.1875 C 34.019531 -4.03125 33.363281 -5.492188 32.75 -6.578125 C 32.144531 -7.660156 31.445312 -8.625 30.65625 -9.46875 C 29.71875 -10.476562 28.757812 -11.035156 27.78125 -11.140625 C 26.8125 -11.242188 25.945312 -10.941406 25.1875 -10.234375 C 24.71875 -9.796875 24.410156 -9.300781 24.265625 -8.75 C 24.117188 -8.195312 24.101562 -7.53125 24.21875 -6.75 C 24.34375 -5.96875 24.8125 -4.296875 25.625 -1.734375 C 26.695312 1.671875 27.078125 4.335938 26.765625 6.265625 C 26.453125 8.203125 25.476562 9.941406 23.84375 11.484375 Z M 23.84375 11.484375 "/></g></g></g><g fill="#ffffff" fill-opacity="1"><g transform="translate(214.147072, 126.150978)"><g><path d="M 14.015625 14.96875 L 15.671875 11.5 L 15.546875 11.359375 C 13.609375 11.515625 11.984375 11.328125 10.671875 10.796875 C 9.367188 10.273438 8.015625 9.257812 6.609375 7.75 C 4.890625 5.914062 4.054688 3.972656 4.109375 1.921875 C 4.171875 -0.128906 5.179688 -2.066406 7.140625 -3.890625 C 9.179688 -5.804688 11.351562 -6.503906 13.65625 -5.984375 C 15.957031 -5.460938 18.503906 -3.8125 21.296875 -1.03125 L 24.53125 2.203125 L 25.375 1.40625 C 27.320312 -0.414062 27.363281 -2.320312 25.5 -4.3125 C 24.0625 -5.84375 21.90625 -7.21875 19.03125 -8.4375 L 20.9375 -13.484375 C 24.15625 -12.359375 27.03125 -10.445312 29.5625 -7.75 C 31.976562 -5.164062 33.269531 -2.660156 33.4375 -0.234375 C 33.601562 2.191406 32.539062 4.476562 30.25 6.625 L 17.4375 18.625 Z M 21.46875 5.0625 L 19.5 3.09375 C 18.019531 1.613281 16.675781 0.738281 15.46875 0.46875 C 14.269531 0.195312 13.160156 0.546875 12.140625 1.515625 C 10.648438 2.898438 10.703125 4.441406 12.296875 6.140625 C 13.429688 7.359375 14.691406 8 16.078125 8.0625 C 17.460938 8.132812 18.734375 7.628906 19.890625 6.546875 Z M 21.46875 5.0625 "/></g></g></g><g fill="#ffffff" fill-opacity="1"><g transform="translate(234.066833, 147.424166)"><g><path d="M 7.484375 8 L 2.578125 2.75 L 29.328125 -22.296875 L 34.234375 -17.046875 Z M 7.484375 8 "/></g></g></g><g fill="#ffffff" fill-opacity="1"><g transform="translate(244.131388, 158.172545)"><g><path d="M 25.890625 -4.140625 C 24.847656 -5.242188 23.679688 -5.78125 22.390625 -5.75 C 21.097656 -5.726562 19.753906 -5.15625 18.359375 -4.03125 L 25.265625 3.328125 C 26.546875 2.085938 27.226562 0.816406 27.3125 -0.484375 C 27.40625 -1.796875 26.929688 -3.015625 25.890625 -4.140625 Z M 10.375 11.78125 C 7.476562 8.6875 6.066406 5.46875 6.140625 2.125 C 6.222656 -1.21875 7.832031 -4.359375 10.96875 -7.296875 C 14.1875 -10.316406 17.425781 -11.84375 20.6875 -11.875 C 23.945312 -11.914062 26.910156 -10.515625 29.578125 -7.671875 C 32.117188 -4.941406 33.320312 -2.097656 33.1875 0.859375 C 33.0625 3.828125 31.632812 6.585938 28.90625 9.140625 L 26.359375 11.515625 L 14.765625 -0.875 C 13.316406 0.570312 12.5625 2.097656 12.5 3.703125 C 12.445312 5.316406 13.117188 6.867188 14.515625 8.359375 C 15.597656 9.523438 16.738281 10.507812 17.9375 11.3125 C 19.144531 12.125 20.546875 12.84375 22.140625 13.46875 L 18.078125 17.265625 C 16.753906 16.765625 15.492188 16.097656 14.296875 15.265625 C 13.097656 14.441406 11.789062 13.28125 10.375 11.78125 Z M 10.375 11.78125 "/></g></g></g></svg>