<?xml version="1.0" encoding="UTF-8"?>
<svg version="1.1" viewBox="0 0 2048 2048" width="1280" height="1280" xmlns="http://www.w3.org/2000/svg">
<path transform="translate(1303,360)" d="m0 0h98l395 1 11 3 10 5 6 5 7 10 3 8 1 5v939l-1 111-1 12-5 9-7 7-10 6-11 3-70 1h-543v11l4 49 5 38 4 29 5 19 4 6 12 10 12 8 18 13 15 11 7 8-1 4-1 6 5 6 2 5-1 5-5 1h-65l-37-2-47-1-29-1h-164l-89 1-8 1-52 2-2-1-10-1 2-6 7-12-1-8 10-10 13-9 17-12 14-10 10-8 6-12 7-36 2-17 1-5 2-27 5-55h-605l-15-2-12-6-6-5-7-10-4-13v-1055l5-12 8-10 11-7 13-4h939z" fill="#FCFCFC"/>
<path transform="translate(1303,360)" d="m0 0h98l395 1 11 3 10 5 6 5 7 10 3 8 1 5v939l-1 111-1 12-5 9-7 7-10 6-11 3-70 1h-543v11l4 49 5 38 4 29 5 19 4 6 12 10 12 8 18 13 15 11 7 8-1 4-1 6 5 6 2 5-1 5-5 1h-65l-37-2-47-1-29-1h-164l-89 1-8 1-52 2-2-1-10-1 2-6 7-12-1-8 10-10 13-9 17-12 14-10 10-8 6-12 7-36 2-17 1-5 2-27 5-55h-605l-15-2-12-6-6-5-7-10-4-13v-1055l5-12 8-10 11-7 13-4h939zm-14 5 1 4 12 23 12 22 4 9-1044-1-1 1v847h1501l1-3-1-844-9-1h-188l1-1h9l4-1 7-1h14v-2l6 2 16-1 33-2 3-1 1-2 7-2 2-3-1-4 4-2-2-3h2l1-4 3-3v-2l5-2 1-3 4-2 1-2v-6h-2v-2l-12-5-7-1-57-2z" fill="#C1C5C8"/>
<path transform="translate(1303,360)" d="m0 0h98l395 1 11 3 10 5 6 5 7 10 3 8v943l-1 1-1617-1v-944l6-12 6-7 11-7 13-4h939zm-14 5 1 4 12 23 12 22 4 9-1044-1-1 1v847h1501l1-3-1-844-9-1h-188l1-1h9l4-1 7-1h14v-2l6 2 16-1 33-2 3-1 1-2 7-2 2-3-1-4 4-2-2-3h2l1-4 3-3v-2l5-2 1-3 4-2 1-2v-6h-2v-2l-12-5-7-1-57-2z" fill="#040201"/>
<path transform="translate(919,1611)" d="m0 0h271l7 2 1 3h2l4 15 4 6 12 10 12 8 18 13 15 11 7 8-1 4-1 6 5 6 2 5-1 5-5 1h-65l-37-2-47-1-29-1h-164l-89 1-8 1-52 2-2-1-10-1 2-6 7-12-1-8 10-10 13-9 17-12 14-10 10-8 6-12h2l1-9 1-3h9l9-1h34z" fill="#C1C5C8"/>
<path transform="translate(1289,365)" d="m0 0h332l56 2 7 1 12 5v2h2v6l-3 4h-2l-1 3-5 2-1 4-2 1-1 4h-2l2 4-4 1 1 5-3 3-6 1-1 2-5 1-31 2-18 1-4-2v2h-16l-9 1-4 1h-5l-4 1h191l9 1v842h-1v-841h-1499v845h1500v1h-1501v-847l2-1 1043 1-8-16-15-29-6-10z" fill="#A5A8AD"/>
<path transform="translate(919,1611)" d="m0 0h271l7 2 1 3h2l4 15 3 7 10 9 9 7 11 8 8 6 3 3-2 1-7-3-10-2-16 1h-46l-11-1h-70l-23 1h-98l-26-1h-75l-17-1h-37l-3 2 6 3-4 1h-7l-1-2 3-3h2v-2l5-2v-2l17-12 4-2v-2l6-4 5-6 2-4 1-6h2l1-9 1-3h9l9-1h34z" fill="#A0A3A9"/>
<path transform="translate(1194,1583)" d="m0 0h1l4 29-1 4-2-3-13-1h-264l-20 1h-31l-17 1-3 11h-1l1-10 5-26h1v5l13-1h219l103-1 5 1z" fill="#C1C5C8"/>
<path transform="translate(856,1574)" d="m0 0 1 2 23 1 83-1h86l80 1h23l39-1 1-2v2h2l1 18-6-1-122 1h-213v-16h2z" fill="#FCFCFC"/>
<path transform="translate(340,1398)" d="m0 0 6 1 2 2-3 3 1 3 5-2h6l5 3 1 3-3 4h-2v5l3 2h5v7 3l-3 5 3 1 1 2 3 2-4 2-8 2-2 3-13 2-2 4 4 2 2 3-10-1h-2l-1 2h-2l2 3 2-1 1 6-3 2-5-4-3-1v-5l-4 2-2 5-2 4-5 1v3l2 1v2h2v4h-33l2-4 7-1 5 1-3-3-1-5 8-1-2-6-2-1 6-2v-7l4 1h7l2-1-2-1-3-6v-3h2v-2h3l-3-6v-24l4-4h3v-6l6-2 3 3h7z" fill="#A0A3A9"/>
<path transform="translate(932,1484)" d="m0 0 247 1 3 1-1 4-8-1h-89l-44 1h-168l-7-1v-4z" fill="#A0A3A9"/>
<path transform="translate(779,1688)" d="m0 0 5 2 4 2 25 3 36 2 29 1 66 1v1l-7 1-59 1h-20l-13-1v2h-12l-4-1h-33l-13 1h-4l-1-4 1-8z" fill="#A0A3A9"/>
<path transform="translate(1268,1688)" d="m0 0 1 3-3 7-2 1-9 1-32 1h-34l-15 1h-11l-5 1h-20l-5-1h-26l-7-1-1-2 62-1 28-1 31-2 18-1 20-1 7-2z" fill="#A0A3A9"/>
<path transform="translate(214,1341)" d="m0 0 3 3 5 3-2 4h-2l-1 4-1 26v17l1 31 1 17 3 3 1 3v7l-2 2-4-4-2-8z" fill="#A1A4AA"/>
<path transform="translate(214,1341)" d="m0 0 3 3 5 3-2 4h-2l-1 4-1 26v15l-2 2z" fill="#A0A3A9"/>
<path transform="translate(315,1380)" d="m0 0 4 1-1 8-6 2-6-1v-3l1-1h5v-2l2-1z" fill="#A0A3A9"/>
<path transform="translate(845,1628)" d="m0 0 1 3-5 8-7 6h-2v2l-12 9-2-1 9-8 13-10z" fill="#C2C6C9"/>
<path transform="translate(307,1363)" d="m0 0h7l3 3-3 3-8-2z" fill="#A0A3A9"/>
</svg>
