<?xml version='1.0' encoding='iso-8859-1'?>
<!DOCTYPE svg PUBLIC '-//W3C//DTD SVG 1.1//EN' 'http://www.w3.org/Graphics/SVG/1.1/DTD/svg11.dtd'>
<!-- Uploaded to: SVG Repo, www.svgrepo.com, Generator: SVG Repo Mixer Tools -->
<svg fill="#000000" height="800px" width="800px" version="1.1" xmlns="http://www.w3.org/2000/svg" viewBox="0 0 297 297" xmlns:xlink="http://www.w3.org/1999/xlink" enable-background="new 0 0 297 297">
  <g>
    <path d="m170.689,32.863l-12.569-20.183c-1.144-1.837-3.012-3.104-5.142-3.482-0.763-0.137-18.984-3.334-46.34-3.334-25.239,0-63.348,2.866-101.571,16.518-3.039,1.083-5.067,3.963-5.067,7.19v28.928c0,2.483 1.207,4.812 3.237,6.242 1.306,0.919 2.845,1.395 4.4,1.395 0.863,0 1.732-0.147 2.567-0.445 36.039-12.872 77.007-15.606 105.135-15.626 16.108-11.347 35.454-17.203 55.35-17.203z"/>
    <path d="m231.183,220.5c0,14.086-11.46,25.546-25.546,25.546-14.086,0-25.546-11.46-25.546-25.546 0-3.689 0.792-7.193 2.205-10.363h-55.923c6.701,17.369 23.561,29.727 43.264,29.727 4.218,0 7.636,3.419 7.636,7.637s-3.418,7.637-7.636,7.637c-28.222,0-52.047-19.074-59.324-45h-36.863c7.922,45.936 48.022,81 96.187,81 48.164,0 88.265-35.064 96.187-81h-36.847c1.413,3.169 2.206,6.673 2.206,10.362z"/>
    <path d="m215.909,220.5c0-5.664-4.608-10.273-10.272-10.273-5.665,0-10.273,4.609-10.273,10.273s4.608,10.273 10.273,10.273c5.664,0 10.272-4.609 10.272-10.273z"/>
    <path d="m286.091,174.137h-232.909c-6.015,0-10.909,4.648-10.909,10.363s4.895,10.363 10.909,10.363h232.909c6.015,0 10.909-4.648 10.909-10.363s-4.895-10.363-10.909-10.363z"/>
    <path d="m95.096,94.206c-11.771,18.665-20.065,41.627-23.72,64.657h196.521c-3.654-23.03-11.95-45.992-23.721-64.657-13.252-21.017-36.943-46.069-74.54-46.069-37.597,0-61.287,25.052-74.54,46.069z"/>
  </g>
</svg>